name Walk6.mot
datacolumns 19
datarows 10
range 2.52000000 2.52900000
endheader

                time	   L_ground_force_vx	   L_ground_force_vy	   L_ground_force_vz	   L_ground_force_px	   L_ground_force_py	   L_ground_force_pz	   R_ground_force_vx	   R_ground_force_vy	   R_ground_force_vz	   R_ground_force_px	   R_ground_force_py	   R_ground_force_pz	   L_ground_torque_x	   L_ground_torque_y	   L_ground_torque_z	   R_ground_torque_x	   R_ground_torque_y	   R_ground_torque_z	
          2.52000000	          0.00000000	          0.00000000	          0.00000000	          0.00000000	          0.00000000	          0.00000000	         24.23706726	        740.34692124	         59.98136727	         -0.37876109	          0.00000000	         -0.09050402	          0.00000000	          0.00000000	          0.00000000	          0.00000000	          0.32654545	          0.00000000	
          2.52100000	          0.00000000	          0.00000000	          0.00000000	          0.00000000	          0.00000000	          0.00000000	         24.66836360	        740.77668702	         60.24585902	         -0.37841412	          0.00000000	         -0.09052721	          0.00000000	          0.00000000	          0.00000000	          0.00000000	          0.31303079	          0.00000000	
          2.52200000	          0.00000000	          0.00000000	          0.00000000	          0.00000000	          0.00000000	          0.00000000	         25.10011400	        741.20596892	         60.51344967	         -0.37805047	          0.00000000	         -0.09054276	          0.00000000	          0.00000000	          0.00000000	          0.00000000	          0.31374517	          0.00000000	
          2.52300000	          0.00000000	          0.00000000	          0.00000000	          0.00000000	          0.00000000	          0.00000000	         25.51976880	        741.64781428	         60.77750102	         -0.37767933	          0.00000000	         -0.09057336	          0.00000000	          0.00000000	          0.00000000	          0.00000000	          0.33059907	          0.00000000	
          2.52400000	          0.00000000	          0.00000000	          0.00000000	          0.00000000	          0.00000000	          0.00000000	         25.92211863	        742.12691804	         61.03754560	         -0.37732277	          0.00000000	         -0.09062346	          0.00000000	          0.00000000	          0.00000000	          0.00000000	          0.35742925	          0.00000000	
          2.52500000	          0.00000000	          0.00000000	          0.00000000	          0.00000000	          0.00000000	          0.00000000	         26.30555814	        742.64570413	         61.29805892	         -0.37699677	          0.00000000	         -0.09068994	          0.00000000	          0.00000000	          0.00000000	          0.00000000	          0.38486428	          0.00000000	
          2.52600000	          0.00000000	          0.00000000	          0.00000000	          0.00000000	          0.00000000	          0.00000000	         26.66655022	        743.18153352	         61.56301739	         -0.37670545	          0.00000000	         -0.09076780	          0.00000000	          0.00000000	          0.00000000	          0.00000000	          0.40338299	          0.00000000	
          2.52700000	          0.00000000	          0.00000000	          0.00000000	          0.00000000	          0.00000000	          0.00000000	         27.00711618	        743.71136866	         61.83086590	         -0.37645090	          0.00000000	         -0.09084198	          0.00000000	          0.00000000	          0.00000000	          0.00000000	          0.40529272	          0.00000000	
          2.52800000	          0.00000000	          0.00000000	          0.00000000	          0.00000000	          0.00000000	          0.00000000	         27.34171453	        744.23259396	         62.08963765	         -0.37622908	          0.00000000	         -0.09089085	          0.00000000	          0.00000000	          0.00000000	          0.00000000	          0.38830763	          0.00000000	
          2.52900000	          0.00000000	          0.00000000	          0.00000000	          0.00000000	          0.00000000	          0.00000000	         27.68758462	        744.76130672	         62.32010760	         -0.37601598	          0.00000000	         -0.09091246	          0.00000000	          0.00000000	          0.00000000	          0.00000000	          0.35875941	          0.00000000	
